<svg id="Layer_1" data-name="Layer 1" xmlns="http://www.w3.org/2000/svg" viewBox="0 0 584.52 584.52"><defs><style>.cls-1{fill:#fff;}</style></defs><circle cx="292.26" cy="292.26" r="292.26"/><path class="cls-1" d="M410.05,461.69c-21.72-.37-43.44-.55-65.16-1.17-18.46-.52-36.48-3.59-52.73-13C269.11,434.2,255.3,414,250.88,388a284.57,284.57,0,0,1-3.51-43.08c-.51-31.11-.43-62.24-.06-93.36.2-17.09.39-34.29,5.34-50.94,10.13-34,33-54.57,67.47-61.33,13.94-2.73,28.43-3.36,42.69-3.59,31.58-.52,63.18-.43,94.77-.08,16.86.19,33.81.43,50.22,5.31C542,151,562.58,174,569.28,208.62c2.68,13.83,3.33,28.19,3.55,42.34.5,31.58.41,63.18,0,94.77-.19,17-.43,34-5.37,50.56-10.18,34-33,54.58-67.54,61.24-14.4,2.79-29.37,3.06-44.11,3.63-15.24.58-30.53.12-45.79.12C410.05,461.42,410.05,461.55,410.05,461.69ZM276.64,298.37H277c0,14-.36,28,.11,41.92S278,368,280,381.68c3.5,24.05,20.07,40.9,43.73,46.28,14.55,3.31,29.38,3.23,44.14,3.39,28.06.3,56.14.37,84.2-.05a325,325,0,0,0,41-2.86c24.21-3.48,41.17-20.15,46.5-43.92,3.24-14.44,3.17-29.15,3.35-43.78.35-28.18.39-56.38,0-84.56a323,323,0,0,0-2.84-40.67c-3.48-24.37-20.09-41.28-44.15-46.68-14.43-3.24-29.15-3.16-43.78-3.34-28.07-.35-56.14-.4-84.21,0-13.69.21-27.53.73-41,2.9-23.05,3.7-38.87,17-45.28,39.87a112,112,0,0,0-3.78,25.65C277.06,255.39,277,276.89,276.64,298.37Z" transform="translate(-117.83 -13.74)"/><path d="M276.64,298.37c.37-21.48.42-43,1.24-64.45a112,112,0,0,1,3.78-25.65c6.41-22.83,22.23-36.17,45.28-39.87,13.48-2.17,27.32-2.69,41-2.9,28.07-.41,56.14-.36,84.21,0,14.63.18,29.35.1,43.78,3.34,24.06,5.4,40.67,22.31,44.15,46.68a323,323,0,0,1,2.84,40.67c.42,28.18.38,56.38,0,84.56-.18,14.63-.11,29.34-3.35,43.78-5.33,23.77-22.29,40.44-46.5,43.92a325,325,0,0,1-41,2.86c-28.06.42-56.14.35-84.2.05-14.76-.16-29.59-.08-44.14-3.39-23.66-5.38-40.23-22.23-43.73-46.28-2-13.65-2.43-27.56-2.89-41.38s-.11-27.95-.11-41.92Zm217.43.2c.05-46.2-37.7-84.12-83.8-84.17s-84.11,37.69-84.18,83.79,37.69,84.11,83.81,84.18S494,344.67,494.07,298.57ZM516,211.24a19.62,19.62,0,0,0-19.43-19.87,19.65,19.65,0,0,0-.11,39.3A19.69,19.69,0,0,0,516,211.24Z" transform="translate(-117.83 -13.74)"/><path class="cls-1" d="M494.07,298.57c-.06,46.1-38,83.88-84.17,83.8s-83.88-38-83.81-84.18,38-83.85,84.18-83.79S494.12,252.37,494.07,298.57Zm-84,53.91c29.56,0,54-24.35,54.1-54s-24.23-54-53.89-54.18S355.9,268.79,356,298.48A54.38,54.38,0,0,0,410,352.48Z" transform="translate(-117.83 -13.74)"/><path class="cls-1" d="M516,211.24a19.69,19.69,0,0,1-19.54,19.43,19.65,19.65,0,0,1,.11-39.3A19.62,19.62,0,0,1,516,211.24Z" transform="translate(-117.83 -13.74)"/><path d="M410,352.48a54.38,54.38,0,0,1-54.06-54c-.07-29.69,24.63-54.35,54.27-54.16s54,24.65,53.89,54.18S439.59,352.52,410,352.48Z" transform="translate(-117.83 -13.74)"/></svg>