<?xml version="1.0" encoding="utf-8"?>
<!-- Generator: Adobe Illustrator 25.0.0, SVG Export Plug-In . SVG Version: 6.00 Build 0)  -->
<svg version="1.1" id="Layer_1" xmlns="http://www.w3.org/2000/svg" xmlns:xlink="http://www.w3.org/1999/xlink" x="0px" y="0px"
	 viewBox="0 0 151.95 58.3" style="enable-background:new 0 0 151.95 58.3;" xml:space="preserve">
<style type="text/css">
	.st0{fill:#FFFFFF;}
</style>
<g>
	<path class="st0" d="M27.65,37.36c0-4.33-1.06-6.41-4.54-8.92L12.94,20.9c-1.64-1.16-2.23-2.26-2.23-4.2v-5.59
		c0-1.7,0.9-2.6,2.6-2.6h0.93c1.7,0,2.6,0.9,2.6,2.6v7.45l10.63-5.19v-3.37c0-7.08-3.44-10.52-10.52-10.52h-6.43
		C3.44-0.51,0,2.93,0,10.01v9.4c0,4.22,1.14,6.47,4.54,8.92l10.17,7.54c1.64,1.16,2.23,2.26,2.23,4.2v7.11c0,1.7-0.9,2.6-2.6,2.6
		h-1.1c-1.7,0-2.6-0.9-2.6-2.6v-8.94L0,43.29v5c0,7.08,3.44,10.52,10.52,10.52h6.6c7.08,0,10.52-3.44,10.52-10.52V37.36L27.65,37.36
		z"/>
	<polygon class="st0" points="59.08,58.3 59.08,0 48.21,0 48.21,26.28 41.31,26.28 41.31,0 30.42,0 30.42,58.3 41.31,58.3 
		41.31,35.89 48.21,35.89 48.21,58.3 59.08,58.3 	"/>
	<path class="st0" d="M80.45,46.17l0.93,12.13h10.76L84.48,0H69.16L61.5,58.3h9.76l1.16-12.13H80.45L80.45,46.17z M76.23,9.53
		l3.3,27.27h-6.11L76.23,9.53L76.23,9.53z"/>
	<path class="st0" d="M110.91,38.46V58.3h10.88V38.38c0-4.13-1.39-6.2-4.81-7.15l-1.45-0.4l1.41-0.52c3.29-1.21,4.76-3.79,4.76-8.35
		V10.52C121.7,3.44,118.26,0,111.18,0H93.97v58.3h10.88V35.86h3.45C110.01,35.86,110.91,36.76,110.91,38.46L110.91,38.46z
		 M104.85,26.76V9.36h3.37c1.7,0,2.6,0.9,2.6,2.6v12.19c0,1.7-0.9,2.6-2.6,2.6H104.85L104.85,26.76z"/>
	<path class="st0" d="M152.07,10.52c0-7.08-3.44-10.52-10.52-10.52h-16.87v58.3h10.88V35.59h5.99c7.08,0,10.52-3.44,10.52-10.52
		V10.52L152.07,10.52z M141.19,24.06c0,1.7-0.9,2.6-2.6,2.6h-3.03V9.19h3.03c1.7,0,2.6,0.9,2.6,2.6V24.06L141.19,24.06z"/>
</g>
</svg>
